<?xml version="1.0" encoding="UTF-8"?>
<svg xmlns="http://www.w3.org/2000/svg" width="960" height="720" viewBox="0 0 960 720">
<defs>
<style>text { font-family: -apple-system, BlinkMacSystemFont, 'Segoe UI', Inter, Helvetica, Arial, sans-serif; }.title { font-size: 36px; font-weight: 700; fill: #f8fafc; }.subtitle { font-size: 16px; fill: #cbd5e1; }.card-title { font-size: 17px; font-weight: 650; fill: #f8fafc; }.card-meta { font-size: 13px; fill: #94a3b8; }.ph { font-size: 16px; font-weight: 600; fill: #e2e8f0; }</style>
</defs>
<rect x="0" y="0" width="960" height="720" fill="#0b1120" />
<rect x="24" y="24" width="76" height="6" rx="3" fill="#f97316" />
<text class="title" x="24" y="74">Latest Blog Posts</text>
<text class="subtitle" x="24" y="102">Fresh writing, auto-rendered as a stable local asset.</text>
<rect x="24" y="120" width="446" height="178" rx="14" fill="#162033" />
<clipPath id="clip-0"><rect x="24" y="120" width="446" height="103" rx="14" /></clipPath>
<rect x="24" y="120" width="446" height="103" rx="14" fill="#334155" />
<text class="ph" x="247.0" y="177.5" text-anchor="middle">No preview</text>
<text class="card-title" x="40" y="251">Building Nikclaw Watchdog</text>
<text class="card-meta" x="40" y="282">Apr 12, 2026 · 1 min read</text>
<rect x="490" y="120" width="446" height="178" rx="14" fill="#162033" />
<clipPath id="clip-1"><rect x="490" y="120" width="446" height="103" rx="14" /></clipPath>
<rect x="490" y="120" width="446" height="103" rx="14" fill="#334155" />
<text class="ph" x="713.0" y="177.5" text-anchor="middle">No preview</text>
<text class="card-title" x="506" y="251">Dealing With Race Conditions</text>
<text class="card-meta" x="506" y="282">Mar 29, 2026 · 2 min read</text>
<rect x="24" y="318" width="446" height="178" rx="14" fill="#162033" />
<clipPath id="clip-2"><rect x="24" y="318" width="446" height="103" rx="14" /></clipPath>
<rect x="24" y="318" width="446" height="103" rx="14" fill="#334155" />
<text class="ph" x="247.0" y="375.5" text-anchor="middle">No preview</text>
<text class="card-title" x="40" y="449">Domain Problem</text>
<text class="card-meta" x="40" y="480">Mar 15, 2026 · 2 min read</text>
<rect x="490" y="318" width="446" height="178" rx="14" fill="#162033" />
<clipPath id="clip-3"><rect x="490" y="318" width="446" height="103" rx="14" /></clipPath>
<rect x="490" y="318" width="446" height="103" rx="14" fill="#334155" />
<text class="ph" x="713.0" y="375.5" text-anchor="middle">No preview</text>
<text class="card-title" x="506" y="449">Time To Restore</text>
<text class="card-meta" x="506" y="480">Mar 8, 2026 · 1 min read</text>
<rect x="24" y="516" width="446" height="178" rx="14" fill="#162033" />
<clipPath id="clip-4"><rect x="24" y="516" width="446" height="103" rx="14" /></clipPath>
<rect x="24" y="516" width="446" height="103" rx="14" fill="#334155" />
<text class="ph" x="247.0" y="573.5" text-anchor="middle">No preview</text>
<text class="card-title" x="40" y="647">A Small Win</text>
<text class="card-meta" x="40" y="678">Mar 1, 2026 · 1 min read</text>
<rect x="490" y="516" width="446" height="178" rx="14" fill="#162033" />
<clipPath id="clip-5"><rect x="490" y="516" width="446" height="103" rx="14" /></clipPath>
<rect x="490" y="516" width="446" height="103" rx="14" fill="#334155" />
<text class="ph" x="713.0" y="573.5" text-anchor="middle">No preview</text>
<text class="card-title" x="506" y="647">Kid Life Is Just A Journey</text>
<text class="card-meta" x="506" y="678">Feb 22, 2026 · 1 min read</text>
</svg>
